<svg width="322" height="315" viewBox="0 0 322 315" fill="none" xmlns="http://www.w3.org/2000/svg">
<g clip-path="url(#clip0_55_8)">
<path d="M160.646 123.876C183.56 123.876 202.137 142.416 202.137 165.287C202.137 188.157 183.56 206.697 160.646 206.697C137.731 206.697 119.154 188.157 119.154 165.287C119.154 142.416 137.731 123.876 160.646 123.876ZM154.617 180.505C150.714 179.856 147.939 180.973 147.214 185.107C147.603 187.327 147.91 188.24 149.652 189.708C151.671 190.041 153.247 189.905 155.326 189.708C157.302 187.736 157.302 187.736 157.454 183.337C156.346 181.612 156.346 181.611 154.617 180.505ZM173.058 179.797C168.86 179.188 165.805 179.888 164.901 184.399C165.384 186.809 166.07 187.603 168.093 189C170.567 189.304 172.241 189.473 174.432 188.204C175.185 186.877 175.185 186.876 175.451 184.797C175.152 182.361 174.946 181.378 173.058 179.797ZM143.269 167.056C139.452 166.294 137.041 165.478 134.758 169.18C134.294 171.902 134.551 173.074 135.955 175.462C137.595 176.966 137.595 176.966 139.368 177.32C141.516 176.891 142.479 176.446 143.979 174.842C144.917 171.764 144.702 169.917 143.269 167.056ZM184.405 165.64C181.826 165.211 180.658 165.307 178.466 166.747C176.897 169.095 177.01 170.659 177.312 173.427C178.731 175.551 178.731 175.551 180.191 175.858C182.768 175.862 184.503 176.031 186.577 174.4C187.438 172.223 187.581 170.794 187.242 168.472C186.09 166.791 186.09 166.79 184.405 165.64ZM146.815 147.944C144.253 147.246 142.624 146.939 140.121 147.9C138.698 149.775 138.658 151.334 138.786 153.648C139.108 155.598 139.611 156.591 141.141 157.854C143.553 158.361 144.511 157.958 146.638 156.704C148.574 154.664 148.942 153.569 148.942 150.775C148.233 149.139 148.234 149.138 146.815 147.944ZM179.529 147.325C176.589 147.207 175.681 147.876 173.767 150.068C173.368 152.191 173.368 152.191 173.767 154.315C174.919 155.996 174.919 155.996 176.604 157.146C179.183 157.575 180.351 157.48 182.544 156.041C184.115 153.688 184.056 152.128 183.696 149.36C181.569 147.944 181.568 147.944 179.529 147.325ZM165.256 138.034C161.951 137.667 158.914 137.271 156.744 140.158C156.39 142.109 156.422 143.865 156.744 145.82C157.453 147.235 157.454 147.236 158.872 147.944C161.767 148.219 163.656 148.321 166.319 147.192C167.909 145.142 167.91 145.141 167.384 140.865C166.675 139.14 166.674 139.14 165.256 138.034Z" fill="white"/>
<path d="M57.8885 69.1484C69.5884 69.2129 77.0517 70.1117 86.7459 77.1689L88.4861 78.1611C90.7981 79.6087 92.7404 81.3751 94.7244 83.2295L95.9549 84.375C101.223 89.3343 105.835 94.6779 110.183 100.451C112.817 103.923 115.65 107.202 118.584 110.424C122.395 114.721 125.492 119.987 125.428 125.893C124.779 128.496 122.894 129.832 120.951 131.583C118.298 134.114 116.376 137.095 114.407 140.169L113.409 141.712C108.698 149.539 107.606 157.416 107.339 166.389C107.078 171.351 107.078 171.351 105.731 173.262C103.651 175.105 101.521 176.061 98.8035 176.491C96.8685 176.849 87.2633 179.458 85.327 179.809C85.057 179.859 82.7761 180.351 80.4656 180.849C80.451 180.852 80.4364 180.855 80.4217 180.858L75.3982 181.933C61.8347 184.393 38.5162 179.455 36.3885 178.394L33.5516 176.978C33.5169 176.96 30.7077 175.505 28.9422 174.279L27.368 173.203C19.3961 167.386 14.2378 160.004 11.8201 150.396C10.5487 141.748 11.7431 132.453 16.6629 125.082C17.3221 124.208 17.9861 123.336 18.658 122.472L20.785 120.349C21.1396 119.995 22.8303 117.463 23.2674 116.809C23.9766 115.747 24.143 115.491 24.3318 115.039C24.4815 114.68 27.6768 105.604 28.3924 100.498C29.826 90.3094 33.8814 80.9789 42.0633 74.3369C46.3109 71.5862 50.5912 69.2184 55.7381 69.1689L57.8885 69.1484ZM75.3982 123.534C70.258 123.537 66.8123 123.41 62.6316 126.719C62.5816 128.7 62.5715 128.712 63.3406 130.967C63.6964 133.445 73.9797 142.646 78.9441 144.416L81.4266 145.478L85.327 147.247C87.1776 147.842 88.7304 147.976 90.6941 148.049L93.5281 148.044H93.6287C96.1988 148.059 98.4512 148.072 100.93 147.247C102.245 146.505 102.949 146.031 103.767 144.416C104.352 142.728 104.349 141.078 103.767 139.461C100.297 134.265 93.8382 128.488 89.9373 126.719L87.4549 125.304C85.6074 124.463 84.0733 123.903 82.0428 123.716L79.6531 123.534H75.3982Z" fill="white"/>
<path d="M211.365 32.9478C215.935 44.1025 218.057 51.5462 215.365 63.4702L215.135 65.5049C214.711 68.2587 213.846 70.7836 212.916 73.3812L212.343 74.9894C209.84 81.8993 206.722 88.3334 203.102 94.6804C200.933 98.5149 199.021 102.465 197.201 106.49C194.734 111.761 191.088 116.723 185.599 118.923C182.934 119.302 180.953 118.021 178.563 116.842C175.172 115.288 171.653 114.601 168.031 113.904L166.209 113.547C157.104 112.062 149.385 114.039 140.979 117.22C136.286 118.872 136.285 118.872 133.985 118.322C131.457 117.049 129.729 115.388 128.256 112.967C127.158 111.263 120.945 103.126 119.854 101.418C119.701 101.181 118.344 99.1996 116.969 97.1919C116.96 97.179 116.951 97.1661 116.942 97.1532L113.96 92.7861C106.316 80.8252 101.658 56.7518 101.798 54.3212L101.984 51.0805C101.986 51.0513 102.221 47.8141 102.657 45.6619L103.03 43.7529C105.257 33.942 110.044 26.2087 117.975 20.2303C125.472 15.7097 134.543 13.2877 143.309 15.1457C144.378 15.4379 145.447 15.7358 146.512 16.044L147.916 16.6488L149.319 17.2546C149.787 17.4565 152.797 18.0959 153.576 18.2612C154.838 18.5293 155.14 18.5896 155.633 18.5961C156.019 18.6012 165.684 18.166 170.692 16.8913C180.685 14.3542 190.92 14.6392 200.302 19.8795C204.528 22.867 208.412 26.0326 210.494 30.91L211.365 32.9478ZM168.814 72.4505L167.973 70.4261C165.936 65.5379 164.69 62.2123 159.975 59.5025C158.123 60.2131 158.108 60.2082 156.328 61.8025C154.176 63.0883 149.734 76.3934 150.062 81.7932L150.061 84.5605L149.968 88.9486C150.15 90.9366 150.64 92.4643 151.35 94.3601L152.476 97.054L152.515 97.15C153.518 99.6004 154.398 101.748 156.142 103.79C157.348 104.756 158.065 105.245 159.883 105.405C161.675 105.315 163.201 104.68 164.466 103.508C167.899 98.218 170.686 89.8627 170.779 85.4748L171.106 82.5723C171.153 80.4932 171.064 78.8194 170.434 76.8164L169.656 74.4736L168.814 72.4505Z" fill="white"/>
<path d="M303.003 167.822C294.461 175.801 288.421 180.267 276.52 181.79L274.573 182.263C271.897 182.797 269.269 182.847 266.551 182.861L264.869 182.872C257.628 182.883 250.597 182.166 243.462 180.955C239.159 180.24 234.843 179.801 230.493 179.473C224.766 178.965 218.889 177.264 214.869 172.93C213.547 170.594 213.996 168.331 214.202 165.725C214.385 162.067 213.728 158.584 213.042 155.001L212.703 153.196C210.735 144.279 206.103 137.807 200.118 131.106C196.89 127.323 196.889 127.323 196.551 125.011C196.793 122.245 197.682 120.09 199.36 117.914C200.519 116.327 205.697 107.843 206.863 106.26C207.023 106.039 208.342 104.117 209.677 102.17C209.686 102.157 209.694 102.145 209.703 102.132L212.612 97.906C220.769 86.815 241.106 74.4078 243.382 73.7196L246.418 72.8021C246.418 72.8021 249.486 71.9224 251.625 71.5995L253.509 71.3023C263.305 70.0599 272.135 71.8828 280.508 77.2033C287.388 82.6134 292.922 90.1848 294.425 98.9139C294.549 100.001 294.666 101.089 294.774 102.178L294.733 103.679L294.691 105.18C294.677 105.68 295.192 108.679 295.326 109.454C295.542 110.712 295.598 111.011 295.772 111.469C295.91 111.83 299.84 120.617 302.837 124.817C308.813 133.202 312.293 142.761 310.925 153.198C309.734 158.11 308.256 162.766 304.551 166.332L303.003 167.822ZM252.831 140.328C256.562 136.8 259.153 134.529 259.91 129.257C258.583 127.784 258.581 127.768 256.47 126.658C254.505 125.102 240.699 125.471 235.874 127.591L233.339 128.523L229.287 129.913C227.533 130.75 226.313 131.718 224.837 133.012L222.783 134.96L222.709 135.028C220.832 136.781 219.187 138.316 217.954 140.616C217.511 142.057 217.325 142.885 217.843 144.619C218.58 146.246 219.72 147.443 221.256 148.219C227.355 149.612 236.024 149.377 240.076 147.987L242.855 147.313C244.776 146.656 246.276 146.01 247.88 144.753L249.74 143.247L252.831 140.328Z" fill="white"/>
<path d="M202.531 303.767C192.175 298.133 186.001 293.736 180.953 282.514L179.909 280.756C178.586 278.3 177.752 275.721 176.926 273.04L176.411 271.383C174.235 264.233 172.833 257.035 171.884 249.561C171.297 245.058 170.436 240.64 169.456 236.227C168.239 230.39 168.145 223.987 171.181 218.492C173.07 216.365 175.418 216.013 178.027 215.3C181.659 214.196 184.869 212.322 188.168 210.384L189.831 209.416C197.963 204.336 202.906 197.485 207.669 189.217C210.403 184.698 210.403 184.698 212.562 183.552C215.339 182.819 217.713 182.939 220.343 183.831C222.242 184.418 232.086 186.552 233.983 187.147C234.247 187.228 236.521 187.856 238.824 188.491C238.839 188.495 238.854 188.498 238.869 188.503L243.871 189.891C257.156 194.051 275.37 209.781 276.724 211.789L278.529 214.465C278.529 214.465 280.306 217.187 281.261 219.187L282.115 220.943C286.26 230.185 287.117 239.55 284.418 249.692C281.185 258.39 275.436 266.519 267.35 271.072C266.323 271.576 265.295 272.075 264.262 272.563L261.301 273.537C260.808 273.699 258.03 275.262 257.312 275.666C256.147 276.321 255.871 276.481 255.475 276.815C255.165 277.075 247.747 284.048 244.535 288.487C238.123 297.337 229.816 304.136 219.2 306.453C214.041 307.003 209.046 307.179 204.451 304.772L202.531 303.767ZM214.406 244.536C218.973 246.983 221.969 248.743 227.351 247.638C228.394 245.809 228.409 245.802 228.864 243.327C229.798 240.839 225.308 227.327 221.792 223.304L220.123 221.127L217.551 217.612C216.208 216.173 214.897 215.309 213.19 214.305L210.67 212.959L210.581 212.911C208.306 211.673 206.312 210.586 203.694 210.177C202.152 210.245 201.288 210.353 199.746 211.475C198.376 212.775 197.546 214.322 197.247 216.112C197.708 222.628 200.53 231.112 203.102 234.627L204.591 237.135C205.808 238.802 206.889 240.056 208.598 241.199L210.628 242.508L214.406 244.536Z" fill="white"/>
<path d="M29.8424 232.869C33.3114 221.573 36.4274 214.637 46.68 207.483L48.2316 206.112C50.4288 204.331 52.855 203.008 55.3856 201.673L56.9488 200.844C63.7049 197.31 70.6752 194.53 78.0216 192.142C82.4446 190.688 86.7226 188.981 90.97 187.157C96.6052 184.824 103.053 183.486 109.255 185.408C111.81 186.855 112.669 189.099 113.949 191.53C115.844 194.893 118.426 197.69 121.091 200.562L122.427 202.014C129.303 209.035 137.285 212.571 146.66 215.655C151.812 217.468 151.812 217.468 153.434 219.373C154.771 221.965 155.158 224.327 154.821 227.091C154.636 229.076 154.592 239.187 154.399 241.17C154.373 241.446 154.229 243.807 154.082 246.199C154.081 246.214 154.079 246.23 154.078 246.245L153.75 251.443C152.399 265.337 140.418 286.335 138.681 288.059L136.365 290.357C136.365 290.357 133.997 292.636 132.181 293.966L130.591 295.15C122.145 301.029 112.869 303.695 102.045 303.008C92.5641 301.515 83.1193 297.433 76.784 290.354C76.0544 289.441 75.3289 288.525 74.6134 287.603L72.9952 284.876C72.7254 284.422 70.5498 281.99 69.9875 281.361C69.0753 280.341 68.8543 280.1 68.4327 279.775C68.0997 279.518 59.4661 273.57 54.2941 271.27C43.9772 266.675 35.3267 259.814 30.7079 249.81C29.0447 244.835 27.795 239.949 29.2392 234.955L29.8424 232.869ZM92.2272 233.065C90.7365 238.037 89.6012 241.33 91.8719 246.415C93.9437 247.087 93.954 247.1 96.5524 247.066C99.2658 247.502 111.946 240.454 115.254 236.21L117.094 234.143L120.092 230.927C121.256 229.325 121.848 227.866 122.496 225.99L123.313 223.247L123.344 223.15C124.106 220.669 124.775 218.495 124.627 215.837C124.227 214.332 123.933 213.502 122.469 212.202C120.861 211.105 119.122 210.589 117.25 210.642C110.768 212.363 102.807 216.791 99.8091 220.007L97.5965 221.962C96.1739 223.484 95.138 224.792 94.3507 226.697L93.464 228.95L92.8461 231.008L92.2272 233.065Z" fill="white"/>
</g>
<defs>
<clipPath id="clip0_55_8">
<rect width="322" height="315" fill="white"/>
</clipPath>
</defs>
</svg>
