<svg width="104" height="57" viewBox="0 0 104 57" fill="none" xmlns="http://www.w3.org/2000/svg">
<path d="M15.2123 -5.05447e-05C19.4843 -5.05447e-05 22.7843 1.09195 25.1123 3.27595C27.4403 5.45995 28.6043 8.63995 28.6043 12.816C28.6043 16.992 27.4403 20.172 25.1123 22.356C22.7843 24.54 19.4843 25.632 15.2123 25.632C10.9403 25.632 7.64033 24.552 5.31233 22.392C3.00833 20.208 1.85633 17.016 1.85633 12.816C1.85633 8.61595 3.00833 5.43595 5.31233 3.27595C7.64033 1.09195 10.9403 -5.05447e-05 15.2123 -5.05447e-05ZM15.2123 5.93995C13.5083 5.93995 12.2123 6.45595 11.3243 7.48795C10.4363 8.51995 9.99233 9.91195 9.99233 11.664V13.968C9.99233 15.72 10.4363 17.112 11.3243 18.144C12.2123 19.176 13.5083 19.692 15.2123 19.692C16.9163 19.692 18.2123 19.176 19.1003 18.144C20.0123 17.112 20.4683 15.72 20.4683 13.968V11.664C20.4683 9.91195 20.0123 8.51995 19.1003 7.48795C18.2123 6.45595 16.9163 5.93995 15.2123 5.93995ZM44.9126 5.75995C47.4806 5.75995 49.4606 6.59995 50.8526 8.27995C52.2446 9.95995 52.9406 12.444 52.9406 15.732C52.9406 18.996 52.2446 21.468 50.8526 23.148C49.4606 24.804 47.4806 25.632 44.9126 25.632C42.7046 25.632 40.9286 24.912 39.5846 23.472V32.292H32.4206V6.19195H38.2526L38.8646 8.89195C40.2566 6.80395 42.2726 5.75995 44.9126 5.75995ZM42.6806 11.052C41.6246 11.052 40.8326 11.424 40.3046 12.168C39.7766 12.912 39.5126 13.884 39.5126 15.084V16.272C39.5126 17.472 39.7766 18.456 40.3046 19.224C40.8326 19.968 41.6246 20.34 42.6806 20.34C44.7446 20.34 45.7766 19.104 45.7766 16.632V14.724C45.7766 12.276 44.7446 11.052 42.6806 11.052ZM66.2243 5.75995C69.7043 5.75995 72.3563 6.57595 74.1803 8.20795C76.0283 9.83995 76.9523 12.336 76.9523 15.696V16.92H62.6963C62.6963 18.288 62.9963 19.32 63.5963 20.016C64.2203 20.712 65.1923 21.06 66.5123 21.06C67.7123 21.06 68.5883 20.808 69.1403 20.304C69.7163 19.8 70.0043 19.128 70.0043 18.288H76.9523C76.9523 20.592 76.0763 22.392 74.3243 23.688C72.5723 24.984 70.0163 25.632 66.6563 25.632C63.1283 25.632 60.3923 24.816 58.4483 23.184C56.5043 21.528 55.5323 19.032 55.5323 15.696C55.5323 12.432 56.4803 9.95995 58.3763 8.27995C60.2723 6.59995 62.8883 5.75995 66.2243 5.75995ZM66.5123 10.332C64.2563 10.332 62.9963 11.4 62.7323 13.536H69.7163C69.7163 12.552 69.4283 11.772 68.8523 11.196C68.3003 10.62 67.5203 10.332 66.5123 10.332ZM93.512 5.75995C95.72 5.75995 97.376 6.37195 98.48 7.59595C99.584 8.81995 100.136 10.584 100.136 12.888V25.2H92.972V13.752C92.972 12.936 92.756 12.288 92.324 11.808C91.916 11.304 91.328 11.052 90.56 11.052C89.672 11.052 88.952 11.34 88.4 11.916C87.848 12.492 87.572 13.2 87.572 14.04V25.2H80.408V6.19195H86.276L86.744 9.07195C87.488 8.06395 88.46 7.25995 89.66 6.65995C90.884 6.05995 92.168 5.75995 93.512 5.75995ZM10.7279 31.432C19.3919 31.432 23.7239 35.56 23.7239 43.816C23.7239 52.072 19.3919 56.2 10.7279 56.2H-6.24657e-05V31.432H10.7279ZM7.95594 50.26H10.5839C13.9199 50.26 15.5879 48.472 15.5879 44.896V42.736C15.5879 39.16 13.9199 37.372 10.5839 37.372H7.95594V50.26ZM36.9115 36.76C39.8155 36.76 42.1795 37.252 44.0035 38.236C45.8275 39.196 46.7395 40.768 46.7395 42.952V50.368C46.7395 50.776 46.8355 51.112 47.0275 51.376C47.2195 51.64 47.5075 51.772 47.8915 51.772H49.1875V55.912C49.1155 55.96 48.9235 56.044 48.6115 56.164C48.3235 56.26 47.9035 56.356 47.3515 56.452C46.7995 56.572 46.1635 56.632 45.4435 56.632C44.0515 56.632 42.8995 56.428 41.9875 56.02C41.0995 55.588 40.4875 55 40.1515 54.256C39.2395 54.976 38.2195 55.552 37.0915 55.984C35.9635 56.416 34.6435 56.632 33.1315 56.632C28.6675 56.632 26.4355 54.856 26.4355 51.304C26.4355 49.456 26.9275 48.052 27.9115 47.092C28.9195 46.108 30.3595 45.436 32.2315 45.076C34.1035 44.716 36.5515 44.536 39.5755 44.536V43.6C39.5755 42.856 39.3115 42.292 38.7835 41.908C38.2795 41.524 37.6195 41.332 36.8035 41.332C36.0595 41.332 35.4115 41.464 34.8595 41.728C34.3315 41.992 34.0675 42.412 34.0675 42.988V43.132H27.0115C26.9875 43.012 26.9755 42.844 26.9755 42.628C26.9755 40.828 27.8275 39.4 29.5315 38.344C31.2595 37.288 33.7195 36.76 36.9115 36.76ZM39.5755 47.92C37.5355 47.92 36.0235 48.148 35.0395 48.604C34.0795 49.036 33.5995 49.624 33.5995 50.368C33.5995 51.568 34.4155 52.168 36.0475 52.168C36.9835 52.168 37.7995 51.916 38.4955 51.412C39.2155 50.908 39.5755 50.284 39.5755 49.54V47.92ZM63.0832 36.724C63.6352 36.724 64.1272 36.796 64.5592 36.94C64.9912 37.06 65.2072 37.1319 65.2072 37.1559V43.168H62.9032C61.4152 43.168 60.3352 43.552 59.6632 44.32C59.0152 45.088 58.6912 46.228 58.6912 47.74V56.2H51.5272V37.192H57.3952L57.8632 40.072C58.2952 38.968 58.9792 38.14 59.9152 37.588C60.8512 37.012 61.9072 36.724 63.0832 36.724ZM81.9883 37.192V42.052H77.9563V49.288C77.9563 50.152 78.1003 50.788 78.3883 51.196C78.6763 51.58 79.2043 51.772 79.9723 51.772H81.9883V55.984C81.4123 56.176 80.6683 56.332 79.7563 56.452C78.8443 56.572 78.0523 56.632 77.3803 56.632C75.2683 56.632 73.6363 56.248 72.4843 55.48C71.3563 54.712 70.7923 53.404 70.7923 51.556V42.052H68.1283V37.192H71.0803L72.6283 31.432H77.9563V37.192H81.9883ZM94.3483 36.76C96.8923 36.76 99.0403 37.264 100.792 38.272C102.568 39.256 103.456 40.792 103.456 42.88H96.7963C96.7963 42.184 96.4843 41.692 95.8603 41.404C95.4283 41.164 94.8883 41.0439 94.2403 41.0439C92.5123 41.0439 91.6483 41.452 91.6483 42.268C91.6483 42.724 91.9483 43.048 92.5483 43.24C93.1483 43.432 94.1323 43.636 95.5003 43.852C97.1803 44.092 98.5843 44.38 99.7123 44.716C100.84 45.028 101.824 45.604 102.664 46.444C103.504 47.26 103.924 48.412 103.924 49.9C103.924 52.324 103.012 54.052 101.188 55.084C99.3883 56.116 97.0243 56.632 94.0963 56.632C92.4163 56.632 90.8323 56.404 89.3443 55.948C87.8563 55.468 86.6443 54.736 85.7083 53.752C84.7723 52.768 84.3043 51.52 84.3043 50.008H90.9643V50.152C90.9883 50.968 91.3243 51.544 91.9723 51.88C92.6443 52.192 93.3523 52.348 94.0963 52.348C96.0883 52.348 97.0843 51.88 97.0843 50.944C97.0843 50.464 96.7723 50.116 96.1483 49.9C95.5243 49.684 94.5043 49.456 93.0883 49.216C91.3843 48.928 89.9803 48.616 88.8763 48.28C87.7963 47.944 86.8483 47.38 86.0323 46.588C85.2163 45.772 84.8083 44.644 84.8083 43.204C84.8083 40.8759 85.6843 39.22 87.4363 38.236C89.2123 37.252 91.5163 36.76 94.3483 36.76Z" fill="white"/>
</svg>
